<?xml version="1.0" encoding="UTF-8"?>
<svg width="35px" height="35px" viewBox="0 0 35 35" version="1.1" xmlns="http://www.w3.org/2000/svg" xmlns:xlink="http://www.w3.org/1999/xlink">
    <!-- Generator: Sketch 48.2 (47327) - http://www.bohemiancoding.com/sketch -->
    <title>fb</title>
    <desc>Created with Sketch.</desc>
    <defs>
        <path d="M9.29852455,21 L9.27272727,12.8181818 L6,12.8181818 L6,9.54545455 L9.27272727,9.54545455 L9.27272727,7.5 C9.27272727,4.4634 11.1531709,3 13.8620236,3 C15.1595945,3 16.2747845,3.09660273 16.5997827,3.13978636 L16.5997827,6.31321091 L14.7210491,6.31406182 C13.2478227,6.31406182 12.9625718,7.01411455 12.9625718,8.04139909 L12.9625718,9.54545455 L17.25,9.54545455 L15.6136364,12.8181818 L12.9625718,12.8181818 L12.9625718,21 L9.29852455,21 Z" id="path-1"></path>
    </defs>
    <g id="social" stroke="none" stroke-width="1" fill="none" fill-rule="evenodd" transform="translate(-22.000000, -30.000000)">
        <g id="fb" transform="translate(22.000000, 30.000000)">
            <circle id="Oval-4" fill="#2574A9" cx="17.5" cy="17.5" r="17.5"></circle>
            <g id="Icon/App/Facebook" transform="translate(6.000000, 6.000000)">
                <rect id="Bounding-Box" x="0" y="0" width="24" height="24"></rect>
                <mask id="mask-2" fill="white">
                    <use xlink:href="#path-1"></use>
                </mask>
                <use id="Mask" fill="#3B5998" fill-rule="evenodd" xlink:href="#path-1"></use>
                <g id="Mixin/Fill/White" mask="url(#mask-2)" fill="#FFFFFF" fill-rule="evenodd">
                    <rect id="Box" x="0" y="0" width="24" height="24"></rect>
                </g>
            </g>
        </g>
    </g>
</svg>