<?xml version="1.0" encoding="UTF-8"?>
<svg width="70px" height="70px" viewBox="0 0 70 70" version="1.1" xmlns="http://www.w3.org/2000/svg" xmlns:xlink="http://www.w3.org/1999/xlink">
    <!-- Generator: Sketch 48.2 (47327) - http://www.bohemiancoding.com/sketch -->
    <title>Combined Shape</title>
    <desc>Created with Sketch.</desc>
    <defs></defs>
    <g id="Logo-dark" stroke="none" stroke-width="1" fill="none" fill-rule="evenodd">
        <path d="M51.4478374,42.3171201 C52.4662528,40.0501885 53.0327991,37.5362559 53.0327991,34.8899994 C53.0327991,24.8700078 44.909991,16.7471997 34.8899994,16.7471997 C24.8700078,16.7471997 16.7471997,24.8700078 16.7471997,34.8899994 C16.7471997,44.909991 24.8700078,53.0327991 34.8899994,53.0327991 C36.0755233,53.0327991 37.2344892,52.9190908 38.3565859,52.7019855 L29.7162917,41.2359278 L43.0574231,31.1826642 L51.4478374,42.3171201 Z M34.8899994,69.7799988 C15.6207848,69.7799988 0,54.159214 0,34.8899994 C0,15.6207848 15.6207848,0 34.8899994,0 C54.159214,0 69.7799988,15.6207848 69.7799988,34.8899994 C69.7799988,54.159214 54.159214,69.7799988 34.8899994,69.7799988 Z" id="Combined-Shape" fill="#2574A9"></path>
    </g>
</svg>